<svg width="360" height="120" viewBox="0 0 360 120" fill="none" xmlns="http://www.w3.org/2000/svg">
<path d="M0 16C0 7.16344 7.16344 0 16 0H344C352.837 0 360 7.16344 360 16V104C360 112.837 352.837 120 344 120H16C7.16344 120 0 112.837 0 104V16Z" fill="black"/>
<path d="M1.50391 5.49902V21H6.71387C11.3223 21 14.0293 18.1318 14.0293 13.2441C14.0293 8.36719 11.3115 5.49902 6.71387 5.49902H1.50391ZM3.4375 7.23926H6.58496C10.1084 7.23926 12.0527 9.3877 12.0527 13.2656C12.0527 17.1113 10.0977 19.2598 6.58496 19.2598H3.4375V7.23926ZM20.7754 21.1934C23.8584 21.1934 25.9424 18.9697 25.9424 15.4141C25.9424 11.8477 23.8584 9.63477 20.7754 9.63477C17.6816 9.63477 15.5977 11.8477 15.5977 15.4141C15.5977 18.9697 17.6816 21.1934 20.7754 21.1934ZM20.7754 19.5498C18.7988 19.5498 17.499 18.0459 17.499 15.4141C17.499 12.7822 18.7988 11.2783 20.7754 11.2783C22.752 11.2783 24.041 12.7822 24.041 15.4141C24.041 18.0459 22.752 19.5498 20.7754 19.5498ZM42.0449 9.82812H40.1973L37.9629 18.916H37.9199L35.3848 9.82812H33.5801L31.0557 18.916H31.0127L28.7783 9.82812H26.9199L30.0459 21H31.9473L34.4609 12.3525H34.5039L37.0283 21H38.9297L42.0449 9.82812ZM43.5811 21H45.4502V14.4258C45.4502 12.5352 46.5996 11.2891 48.3613 11.2891C50.0801 11.2891 50.9287 12.2773 50.9287 14.082V21H52.7979V13.749C52.7979 11.2139 51.3799 9.63477 48.9307 9.63477C47.2012 9.63477 46.0088 10.4082 45.3857 11.6113H45.3428V9.82812H43.5811V21ZM55.2793 21H57.1484V5.49902H55.2793V21ZM64.3027 21.1934C67.3857 21.1934 69.4697 18.9697 69.4697 15.4141C69.4697 11.8477 67.3857 9.63477 64.3027 9.63477C61.209 9.63477 59.125 11.8477 59.125 15.4141C59.125 18.9697 61.209 21.1934 64.3027 21.1934ZM64.3027 19.5498C62.3262 19.5498 61.0264 18.0459 61.0264 15.4141C61.0264 12.7822 62.3262 11.2783 64.3027 11.2783C66.2793 11.2783 67.5684 12.7822 67.5684 15.4141C67.5684 18.0459 66.2793 19.5498 64.3027 19.5498ZM75.0449 19.6035C73.7021 19.6035 72.8105 18.9053 72.8105 17.8418C72.8105 16.7891 73.6699 16.123 75.1738 16.0264L78.1602 15.8438V16.7568C78.1602 18.3682 76.8066 19.6035 75.0449 19.6035ZM74.626 21.1934C76.1299 21.1934 77.5479 20.3555 78.2139 19.0771H78.2568V21H80.0293V13.2764C80.0293 11.0527 78.375 9.63477 75.7539 9.63477C73.1113 9.63477 71.457 11.1172 71.3281 13.0508H73.1328C73.3691 11.9551 74.2715 11.2783 75.7109 11.2783C77.2578 11.2783 78.1602 12.0947 78.1602 13.459V14.3936L74.959 14.5762C72.3809 14.7266 70.9092 15.9297 70.9092 17.8418C70.9092 19.8506 72.4023 21.1934 74.626 21.1934ZM86.6357 21.1934C88.2471 21.1934 89.5254 20.3984 90.2451 19.1094H90.2773V21H92.0605V5.49902H90.1914V11.6436H90.1484C89.4824 10.4189 88.1934 9.63477 86.5928 9.63477C83.7783 9.63477 81.8555 11.9121 81.8555 15.4141C81.8555 18.916 83.7891 21.1934 86.6357 21.1934ZM86.9902 11.2783C88.9131 11.2783 90.2021 12.9219 90.2021 15.4141C90.2021 17.917 88.9131 19.5498 86.9902 19.5498C85.0137 19.5498 83.7676 17.9492 83.7676 15.4141C83.7676 12.8896 85.0137 11.2783 86.9902 11.2783ZM103.727 21.1934C106.81 21.1934 108.894 18.9697 108.894 15.4141C108.894 11.8477 106.81 9.63477 103.727 9.63477C100.633 9.63477 98.5488 11.8477 98.5488 15.4141C98.5488 18.9697 100.633 21.1934 103.727 21.1934ZM103.727 19.5498C101.75 19.5498 100.45 18.0459 100.45 15.4141C100.45 12.7822 101.75 11.2783 103.727 11.2783C105.703 11.2783 106.992 12.7822 106.992 15.4141C106.992 18.0459 105.703 19.5498 103.727 19.5498ZM110.784 21H112.653V14.4258C112.653 12.5352 113.803 11.2891 115.564 11.2891C117.283 11.2891 118.132 12.2773 118.132 14.082V21H120.001V13.749C120.001 11.2139 118.583 9.63477 116.134 9.63477C114.404 9.63477 113.212 10.4082 112.589 11.6113H112.546V9.82812H110.784V21ZM127.499 7.13184V9.82812H125.834V11.3643H127.499V18.0996C127.499 20.248 128.294 21.0859 130.346 21.0859C130.786 21.0859 131.302 21.0537 131.527 21V19.4316C131.398 19.4531 130.969 19.4854 130.754 19.4854C129.798 19.4854 129.368 19.0234 129.368 18.0029V11.3643H131.538V9.82812H129.368V7.13184H127.499ZM133.633 21H135.502V14.4902C135.502 12.5566 136.651 11.2891 138.51 11.2891C140.261 11.2891 141.152 12.3525 141.152 14.125V21H143.021V13.7812C143.021 11.2891 141.539 9.63477 139.09 9.63477C137.393 9.63477 136.168 10.3652 135.545 11.6113H135.502V5.49902H133.633V21ZM149.875 11.2568C151.637 11.2568 152.808 12.5889 152.851 14.458H146.781C146.899 12.5996 148.124 11.2568 149.875 11.2568ZM152.808 17.7988C152.496 18.8516 151.454 19.5713 150.036 19.5713C148.027 19.5713 146.771 18.1641 146.771 16.0264V15.9189H154.784V15.21C154.784 11.8262 152.926 9.63477 149.907 9.63477C146.824 9.63477 144.848 11.9873 144.848 15.457C144.848 18.9697 146.792 21.1934 149.993 21.1934C152.432 21.1934 154.322 19.7539 154.645 17.7988H152.808Z" transform="translate(112 21)" fill="white"/>
<path d="M24.4694 44H29.7926L18.0905 11.5889H12.6549L0.952774 44H6.18617L9.15102 35.2402H21.5045L24.4694 44ZM15.2604 16.9795H15.3952L20.2243 31.1973H10.4313L15.2604 16.9795ZM46.0085 19.9893C42.5945 19.9893 39.8767 21.7188 38.4841 24.4365H38.3943V20.3711H33.6999V51.8164H38.5515V40.1143H38.6638C40.0114 42.7422 42.7068 44.4043 46.0984 44.4043C52.028 44.4043 55.9587 39.665 55.9587 32.1855C55.9587 24.7061 52.0056 19.9893 46.0085 19.9893ZM44.7282 40.2939C40.9997 40.2939 38.529 37.1045 38.529 32.1855C38.529 27.3115 41.0222 24.0771 44.7282 24.0771C48.5691 24.0771 50.9724 27.2441 50.9724 32.1855C50.9724 37.1494 48.5691 40.2939 44.7282 40.2939ZM72.9383 19.9893C69.5242 19.9893 66.8064 21.7188 65.4139 24.4365H65.324V20.3711H60.6297V51.8164H65.4813V40.1143H65.5936C66.9412 42.7422 69.6365 44.4043 73.0281 44.4043C78.9578 44.4043 82.8885 39.665 82.8885 32.1855C82.8885 24.7061 78.9354 19.9893 72.9383 19.9893ZM71.658 40.2939C67.9295 40.2939 65.4588 37.1045 65.4588 32.1855C65.4588 27.3115 67.952 24.0771 71.658 24.0771C75.4988 24.0771 77.9021 27.2441 77.9021 32.1855C77.9021 37.1494 75.4988 40.2939 71.658 40.2939ZM96.9697 34.9707C97.2841 40.833 102.136 44.5391 109.323 44.5391C117.005 44.5391 121.834 40.7432 121.834 34.6787C121.834 29.9395 119.071 27.2666 112.423 25.6943L108.852 24.8184C104.674 23.7852 102.967 22.4375 102.967 20.1465C102.967 17.2715 105.64 15.2949 109.548 15.2949C113.456 15.2949 116.129 17.249 116.421 20.4834H121.317C121.16 14.8906 116.466 11.0498 109.615 11.0498C102.697 11.0498 97.8232 14.8906 97.8232 20.4834C97.8232 24.998 100.586 27.7832 106.538 29.2207L110.738 30.2314C114.938 31.2646 116.713 32.7695 116.713 35.2852C116.713 38.1826 113.77 40.2939 109.683 40.2939C105.415 40.2939 102.293 38.1826 101.934 34.9707H96.9697ZM128.1 14.7783V20.3711H124.663V24.2119H128.1V37.7783C128.1 42.3379 129.964 44.1572 134.748 44.1572C135.826 44.1572 136.904 44.0674 137.443 43.9326V40.0918C137.129 40.1592 136.343 40.2041 135.849 40.2041C133.872 40.2041 132.974 39.2832 132.974 37.2393V24.2119H137.466V20.3711H132.974V14.7783H128.1ZM151.952 44.4492C158.713 44.4492 163.16 39.7998 163.16 32.1855C163.16 24.5938 158.691 19.9443 151.952 19.9443C145.214 19.9443 140.744 24.5938 140.744 32.1855C140.744 39.7998 145.192 44.4492 151.952 44.4492ZM151.952 40.4512C148.156 40.4512 145.686 37.4414 145.686 32.1855C145.686 26.9521 148.156 23.9424 151.952 23.9424C155.748 23.9424 158.219 26.9521 158.219 32.1855C158.219 37.4414 155.771 40.4512 151.952 40.4512ZM167.831 44H172.683V29.8496C172.683 26.5029 174.614 24.4141 177.737 24.4141C178.68 24.4141 179.533 24.5264 179.915 24.6836V20.1689C179.556 20.1016 178.949 19.9893 178.253 19.9893C175.468 19.9893 173.357 21.6289 172.571 24.3916H172.458V20.3711H167.831V44ZM192.695 23.8525C196.086 23.8525 198.377 26.3906 198.49 30.0068H186.675C186.922 26.4355 189.303 23.8525 192.695 23.8525ZM198.467 37.0596C197.816 39.126 195.772 40.5186 193.009 40.5186C189.123 40.5186 186.653 37.8008 186.653 33.6904V33.3984H203.341V31.7363C203.341 24.5713 199.253 19.9443 192.695 19.9443C186.024 19.9443 181.756 24.8857 181.756 32.2979C181.756 39.7549 185.956 44.4492 192.897 44.4492C198.31 44.4492 202.398 41.3721 203.072 37.0596H198.467Z" transform="translate(112 46)" fill="white"/>
<path d="M58.7425 55.4758C57.6652 57.9629 56.3901 60.2522 54.9128 62.357C52.899 65.2263 51.2502 67.2125 49.9795 68.3154C48.0097 70.1257 45.8992 71.0529 43.6392 71.1056C42.0167 71.1056 40.0601 70.6443 37.7825 69.7083C35.4974 68.7768 33.3975 68.3154 31.4774 68.3154C29.4636 68.3154 27.3038 68.7768 24.9937 69.7083C22.6801 70.6443 20.8162 71.132 19.3912 71.1803C17.2239 71.2726 15.0638 70.3191 12.9075 68.3154C11.5313 67.1158 9.80991 65.0594 7.74776 62.1461C5.53525 59.0351 3.71625 55.4275 2.29122 51.3146C0.765059 46.8722 0 42.5704 0 38.4057C0 33.635 1.03151 29.5204 3.09761 26.0723C4.72138 23.3027 6.88158 21.118 9.58523 19.5142C12.2889 17.9103 15.2102 17.093 18.3561 17.0407C20.0775 17.0407 22.3349 17.5729 25.1401 18.6186C27.9374 19.668 29.7335 20.2001 30.521 20.2001C31.1098 20.2001 33.1051 19.5779 36.4876 18.3374C39.6864 17.187 42.386 16.7107 44.5977 16.8984C50.5906 17.3817 55.0931 19.7427 58.0873 23.9961C52.7275 27.2416 50.0762 31.7873 50.129 37.6187C50.1773 42.1609 51.8262 45.9407 55.0667 48.9418C56.5352 50.3348 58.1753 51.4113 60 52.1759C59.6043 53.3227 59.1866 54.4213 58.7425 55.4758ZM44.9978 1.42413C44.9978 4.98426 43.6963 8.30835 41.1022 11.3851C37.9716 15.0427 34.185 17.1563 30.0787 16.8228C30.0264 16.3957 29.996 15.9462 29.996 15.4738C29.996 12.0561 31.4848 8.39843 34.1287 5.40781C35.4486 3.8936 37.1274 2.63457 39.1631 1.63021C41.1945 0.640834 43.1159 0.093682 44.923 0C44.9758 0.475924 44.9978 0.951892 44.9978 1.42408V1.42413Z" transform="translate(26 23)" fill="white"/>
</svg>