<svg xmlns="http://www.w3.org/2000/svg" style="isolation:isolate" viewBox="0 0 128 40" width="128pt" height="40pt"><defs><clipPath id="a"><path d="M0 0h128v40H0z"/></clipPath></defs><g clip-path="url(#a)"><clipPath id="b"><path d="M0-44h128V84H0V-44z" fill="#FFF"/></clipPath><g clip-path="url(#b)"><path d="M124 40H4a4 4 0 0 1-4-4V4a4 4 0 0 1 4-4h120a4 4 0 0 1 4 4v32a4 4 0 0 1-4 4z"/></g><path d="M93.374 8.337v.63h-1.362v4.721h-.811V8.967h-.957v-.366l.957-.293V8.01q0-1.973 1.724-1.973.425 0 .996.171l-.21.649q-.469-.151-.801-.151-.459 0-.679.305-.219.305-.219.979v.347h1.362zm5.596 2.671q0 1.308-.659 2.043-.66.735-1.822.735-.718 0-1.274-.337-.557-.337-.86-.967-.302-.629-.302-1.474 0-1.309.654-2.039.654-.73 1.816-.73 1.123 0 1.785.747.662.747.662 2.022zm-4.077 0q0 1.025.41 1.562.41.537 1.206.537t1.208-.534q.413-.535.413-1.565 0-1.021-.413-1.55-.412-.53-1.218-.53-.796 0-1.201.522-.405.523-.405 1.558zm7.939-2.769q.356 0 .64.059l-.113.752q-.332-.073-.586-.073-.649 0-1.11.527-.462.527-.462 1.313v2.871h-.81V8.337h.669l.092.991h.039q.298-.522.718-.806.42-.283.923-.283zM46.68 10.051q0 1.767-.96 2.702-.959.935-2.761.935h-1.978V6.55h2.188q1.665 0 2.588.923t.923 2.578zm-.879.029q0-1.396-.701-2.104-.701-.708-2.082-.708h-1.206v5.703h1.01q1.485 0 2.232-.73.747-.73.747-2.161zm6.968.928q0 1.308-.66 2.043-.659.735-1.821.735-.718 0-1.274-.337-.557-.337-.86-.967-.302-.629-.302-1.474 0-1.309.654-2.039.654-.73 1.816-.73 1.123 0 1.785.747.662.747.662 2.022zm-4.078 0q0 1.025.411 1.562.41.537 1.206.537t1.208-.534q.413-.535.413-1.565 0-1.021-.413-1.55-.412-.53-1.218-.53-.796 0-1.201.522-.406.523-.406 1.558zm10.83 2.68h-.961l-.982-3.139q-.093-.288-.347-1.309h-.039q-.195.855-.341 1.319l-1.011 3.129h-.938l-1.46-5.351h.85l.789 3.071q.271 1.055.31 1.421h.039q.053-.278.173-.72.12-.442.208-.701l.981-3.071h.879l.957 3.071q.273.84.371 1.411h.039q.02-.175.105-.542.086-.366 1.018-3.94h.84l-1.48 5.351zm6.919 0h-.81v-3.461q0-.655-.298-.977-.298-.322-.933-.322-.839 0-1.23.454t-.391 1.499v2.807h-.81V8.337h.659l.132.732h.039q.249-.395.698-.612.449-.218 1.001-.218.967 0 1.455.467.488.466.488 1.491v3.491zm2.476-7.597v7.597h-.811V6.091h.811zm6.338 4.917q0 1.308-.659 2.043-.659.735-1.822.735-.717 0-1.274-.337t-.859-.967q-.303-.629-.303-1.474 0-1.309.654-2.039.655-.73 1.817-.73 1.123 0 1.784.747.662.747.662 2.022zm-4.077 0q0 1.025.41 1.562.41.537 1.206.537t1.208-.534q.413-.535.413-1.565 0-1.021-.413-1.55-.412-.53-1.218-.53-.796 0-1.201.522-.405.523-.405 1.558zm9.389 2.68h-.6l-.161-.761h-.039q-.401.503-.799.681-.398.178-.993.178-.796 0-1.248-.41-.452-.41-.452-1.167 0-1.621 2.593-1.699l.908-.03v-.332q0-.629-.271-.93-.271-.3-.866-.3-.669 0-1.514.41l-.249-.62q.396-.215.867-.337.471-.122.945-.122.957 0 1.418.425.461.425.461 1.362v3.652zm-2.431-.571q.757 0 1.189-.415.432-.415.432-1.162v-.483l-.811.034q-.966.034-1.394.3-.427.266-.427.828 0 .439.266.669.266.229.745.229zm7.851.571l-.107-.717h-.044q-.562.815-1.68.815-1.05 0-1.633-.718-.584-.717-.584-2.041 0-1.323.586-2.055.586-.733 1.631-.733 1.089 0 1.67.791h.064l-.035-.385-.019-.376V6.091h.811v7.597h-.66zm-1.728-.581q.83 0 1.203-.451.374-.452.374-1.458v-.171q0-1.137-.378-1.623-.379-.486-1.209-.486-.713 0-1.091.554-.379.554-.379 1.565 0 1.026.376 1.548t1.104.522zM50.9 31.003h-2.232l-1.283-3.568h-4.913l-1.257 3.568H39l4.808-12.902h2.285L50.9 31.003zm-7.813-5.379h3.744l-1.204-3.498q-.132-.352-.365-1.107-.233-.756-.321-1.108-.237 1.081-.694 2.364l-1.16 3.349zm17.842-.958v6.337h-2.075v-5.977q0-1.125-.452-1.678-.453-.554-1.437-.554-1.31 0-1.916.773-.607.774-.607 2.593v4.843h-2.065v-9.721h1.617l.29 1.275h.106q.439-.695 1.248-1.073.808-.378 1.793-.378 3.498 0 3.498 3.56zm6.152 6.513q-1.819 0-2.839-1.319-1.019-1.318-1.019-3.7 0-2.39 1.032-3.722 1.033-1.332 2.861-1.332 1.916 0 2.918 1.415h.106q-.15-1.045-.15-1.652v-3.542h2.074v13.676h-1.617l-.36-1.274h-.097q-.993 1.45-2.909 1.45zm.554-1.67q1.274 0 1.854-.717.58-.716.598-2.324v-.29q0-1.837-.598-2.611-.597-.773-1.872-.773-1.09 0-1.679.883-.588.884-.588 2.518 0 1.618.571 2.466.571.848 1.714.848zm12.313-8.403q.624 0 1.029.088l-.203 1.925q-.439-.105-.914-.105-1.239 0-2.008.808-.769.809-.769 2.101v5.08h-2.065v-9.721h1.617l.272 1.714h.106q.483-.87 1.261-1.38.778-.51 1.674-.51zM91.4 26.125q0 2.382-1.221 3.718-1.222 1.336-3.402 1.336-1.362 0-2.408-.616-1.046-.615-1.608-1.766-.563-1.151-.563-2.672 0-2.364 1.213-3.691 1.213-1.328 3.419-1.328 2.109 0 3.34 1.358 1.23 1.358 1.23 3.661zm-7.075 0q0 3.366 2.488 3.366 2.46 0 2.46-3.366 0-3.331-2.478-3.331-1.301 0-1.885.861-.585.862-.585 2.47zm11.514-4.843v9.721h-2.066v-9.721h2.066zm-2.189-2.575q0-.554.304-.853.303-.298.865-.298.545 0 .848.298.304.299.304.853 0 .527-.304.831-.303.303-.848.303-.562 0-.865-.303-.304-.304-.304-.831zm8.42 12.472q-1.819 0-2.839-1.319-1.019-1.318-1.019-3.7 0-2.39 1.033-3.722 1.032-1.332 2.86-1.332 1.916 0 2.918 1.415h.106q-.15-1.045-.15-1.652v-3.542h2.075v13.676h-1.617l-.361-1.274h-.097q-.993 1.45-2.909 1.45zm.554-1.67q1.274 0 1.855-.717.58-.716.597-2.324v-.29q0-1.837-.597-2.611-.598-.773-1.873-.773-1.089 0-1.678.883-.589.884-.589 2.518 0 1.618.571 2.466.571.848 1.714.848z" fill="#FFF"/><g fill="#FFF"><path d="M10.25 24.375a1.626 1.626 0 0 1-3.25 0v-7.312a1.626 1.626 0 0 1 3.25 0v7.312zm22.75 0a1.626 1.626 0 0 1-3.25 0v-7.312a1.626 1.626 0 0 1 3.25 0v7.312zm-14.625 8.938a1.626 1.626 0 0 1-3.25 0V26a1.626 1.626 0 0 1 3.25 0v7.313zm6.5 0a1.626 1.626 0 0 1-3.25 0V26a1.626 1.626 0 0 1 3.25 0v7.313z"/><path d="M11.875 15.438v12.187c0 .897.728 1.625 1.625 1.625h13c.897 0 1.625-.728 1.625-1.625V15.438h-16.25zM20 7.313c-4.875 0-7.846 2.961-8.125 6.5h16.25c-.283-3.539-3.25-6.5-8.125-6.5zm-3.25 4.548a.815.815 0 0 1-.812-.813c0-.447.365-.812.812-.812.447 0 .813.365.813.812a.816.816 0 0 1-.813.813zm6.5 0a.812.812 0 1 1-.002-1.624.812.812 0 0 1 .002 1.624z"/><path d="M24.875 6.5l-1.352 2.031M15.125 6.5l1.082 1.692" vector-effect="non-scaling-stroke" stroke-width="2" stroke="#FFF" stroke-linecap="round"/></g></g></svg>