<svg xmlns="http://www.w3.org/2000/svg" viewBox="0 0 96 96">
  <defs>
    <clipPath id="heart"><path d="M48,84 C20,64 8,48 8,33 C8,21 17,13 28,13 C37,13 44,19 48,26 C52,19 59,13 68,13 C79,13 88,21 88,33 C88,48 76,64 48,84 Z"/></clipPath>
  </defs>
  <g clip-path="url(#heart)"><rect x="8" y="14.000" width="80" height="18.500" fill="#FCF434"/><rect x="8" y="32.000" width="80" height="18.500" fill="#FFFFFF"/><rect x="8" y="50.000" width="80" height="18.500" fill="#9C59D1"/><rect x="8" y="68.000" width="80" height="18.500" fill="#2C2C2C"/></g>
  <path d="M48,84 C20,64 8,48 8,33 C8,21 17,13 28,13 C37,13 44,19 48,26 C52,19 59,13 68,13 C79,13 88,21 88,33 C88,48 76,64 48,84 Z" fill="none" stroke="#00000022" stroke-width="1.5"/>
</svg>
